<?xml version="1.0" encoding="UTF-8" standalone="no"?>
<!-- Created with Inkscape (http://www.inkscape.org/) -->

<svg
   width="50.273167mm"
   height="50.021896mm"
   viewBox="0 0 50.273166 50.021896"
   version="1.1"
   id="svg1"
   inkscape:version="1.3.2 (1:1.3.2+202311252150+091e20ef0f)"
   sodipodi:docname="logo.svg"
   xml:space="preserve"
   inkscape:export-filename="logo.png"
   inkscape:export-xdpi="151.43709"
   inkscape:export-ydpi="151.43709"
   xmlns:inkscape="http://www.inkscape.org/namespaces/inkscape"
   xmlns:sodipodi="http://sodipodi.sourceforge.net/DTD/sodipodi-0.dtd"
   xmlns="http://www.w3.org/2000/svg"
   xmlns:svg="http://www.w3.org/2000/svg"><sodipodi:namedview
     id="namedview1"
     pagecolor="#ffffff"
     bordercolor="#000000"
     borderopacity="0.25"
     inkscape:showpageshadow="2"
     inkscape:pageopacity="0.0"
     inkscape:pagecheckerboard="0"
     inkscape:deskcolor="#d1d1d1"
     inkscape:document-units="mm"
     inkscape:zoom="1.4778115"
     inkscape:cx="105.22316"
     inkscape:cy="72.742701"
     inkscape:window-width="2197"
     inkscape:window-height="1237"
     inkscape:window-x="985"
     inkscape:window-y="118"
     inkscape:window-maximized="0"
     inkscape:current-layer="layer1"
     inkscape:export-bgcolor="#ffffff00"><inkscape:page
       x="0"
       y="0"
       width="50.273167"
       height="50.021893"
       id="page1"
       margin="0"
       bleed="0" /></sodipodi:namedview><defs
     id="defs1"><clipPath
       clipPathUnits="userSpaceOnUse"
       id="clipPath1"><path
         id="path1"
         style="opacity:0.735985;fill:#00ff00;stroke:#aa0000;stroke-width:0.121535"
         d="M -78.800545,-178.54884 H 39.972022 c 0.777103,0 1.40271,0.59173 1.40271,1.32675 v 112.341362 c 0,0.735023 -0.625607,1.326758 -1.40271,1.326758 H -78.800545 c -0.777102,0 -1.402709,-0.591735 -1.402709,-1.326758 V -177.22209 c 0,-0.73502 0.625607,-1.32675 1.402709,-1.32675 z" /></clipPath><clipPath
       clipPathUnits="userSpaceOnUse"
       id="clipPath2"><rect
         style="opacity:0.735985;fill:#00ff00;stroke:#aa0000;stroke-width:0.165"
         id="rect2"
         width="160.52686"
         height="160.52686"
         x="-99.253197"
         y="-14.685422"
         rx="1.8520833"
         ry="1.8520833" /></clipPath></defs><g
     inkscape:label="Layer 1"
     inkscape:groupmode="layer"
     id="layer1"><path
       style="fill:#edf3ff;fill-opacity:1;stroke:none;stroke-width:0.165"
       d="m 24.714583,45.277111 c 0,-7.612604 0,-40.830973 0,-40.830973 0,0 -1.100175,-3.76164763 -6.565785,-3.76164763 -5.465609,0 -7.105353,3.96732373 -8.00205,8.00205033 -4.2336442,0.770319 -5.4005707,2.1997613 -6.4006679,4.5063913 -1.0000971,2.306629 -0.6528695,4.267766 0.3820321,6.436583 -2.0360577,1.612659 -3.61656191,4.319123 -3.61656191,7.048688 0,2.729564 1.31370231,5.148679 4.02692401,6.766816 -1.0348011,2.996441 -0.7233525,4.833664 0.4103611,6.565787 1.1337137,1.732123 2.6759831,2.064217 5.1979126,2.667351 1.191988,3.988444 4.710632,5.628304 7.859102,5.628304 3.148468,0 4.608936,-0.624653 6.708733,-3.02935 z"
       id="path2-3"
       sodipodi:nodetypes="cczczczczczc" /><path
       style="fill:#fff2ed;fill-opacity:1;stroke:none;stroke-width:0.165"
       d="m 25.776307,45.277111 c 0,-7.612604 0,-40.830973 0,-40.830973 0,0 1.100175,-3.76164763 6.565785,-3.76164763 5.465608,0 7.105353,3.96732373 8.002049,8.00205033 4.233645,0.770319 5.400572,2.1997613 6.400669,4.5063913 1.000098,2.306629 0.65287,4.267766 -0.382032,6.436583 2.036058,1.612659 3.616566,4.319123 3.616566,7.048688 0,2.729564 -1.313706,5.148679 -4.026929,6.766816 1.034801,2.996441 0.723353,4.833664 -0.410361,6.565787 -1.133713,1.732123 -2.675982,2.064217 -5.197913,2.667351 -1.191987,3.988444 -4.710632,5.628304 -7.859101,5.628304 -3.148468,0 -4.608936,-0.624653 -6.708733,-3.02935 z"
       id="path2-8-1"
       sodipodi:nodetypes="cczczczczczc" /><circle
       style="fill:none;fill-opacity:1;stroke:#02b5bc;stroke-width:1.665;stroke-dasharray:none;stroke-opacity:1"
       id="path3-1"
       cx="32.501514"
       cy="8.6248121"
       r="4.192647" /><circle
       style="fill:none;fill-opacity:1;stroke:#078eb9;stroke-width:1.665;stroke-dasharray:none;stroke-opacity:1"
       id="path3-2-0"
       cx="41.390182"
       cy="15.535409"
       r="3.1174924" /><circle
       style="fill:#007eca;fill-opacity:1;stroke:#007eca;stroke-width:1.665;stroke-dasharray:none;stroke-opacity:1"
       id="path3-2-7-3"
       cx="42.491184"
       cy="26.448679"
       r="3.9338133" /><circle
       style="fill:#3c4998;fill-opacity:1;stroke:#3c4998;stroke-width:1.665;stroke-dasharray:none;stroke-opacity:1"
       id="path3-2-7-2-1"
       cx="41.47831"
       cy="35.832687"
       r="2.5600054" /><circle
       style="fill:none;fill-opacity:1;stroke:#00abed;stroke-width:1.66501;stroke-dasharray:none;stroke-opacity:1"
       id="path3-2-7-2-4-1"
       cx="32.205494"
       cy="32.309162"
       r="3.8899486" /><circle
       style="fill:#006db2;fill-opacity:1;stroke:#006db2;stroke-width:1.66501;stroke-dasharray:none;stroke-opacity:1"
       id="path3-2-7-2-4-3-1"
       cx="32.147114"
       cy="41.697041"
       r="3.4546945" /><path
       style="fill:#44af4d;fill-opacity:1;stroke:#44af4d;stroke-width:1.665;stroke-linecap:round;stroke-linejoin:round;stroke-dasharray:none;stroke-opacity:1"
       d="m 28.647215,14.978751 0.06839,9.506709 c 0,0 0.957513,1.265281 3.2145,1.265281 2.256989,0 5.334701,-2.152544 5.334701,-4.992732 0,-2.670261 -2.183966,-5.779258 -8.617593,-5.779258 z"
       id="path4-8"
       sodipodi:nodetypes="ccsssc" /><circle
       style="fill:#efc00d;fill-opacity:1;stroke:#efc00d;stroke-width:1.665;stroke-dasharray:none;stroke-opacity:1"
       id="path3-8-0"
       cx="-18.056795"
       cy="8.6248121"
       r="4.192647"
       transform="scale(-1,1)" /><circle
       style="fill:#f7a71f;fill-opacity:1;stroke:#f7a71f;stroke-width:1.665;stroke-dasharray:none;stroke-opacity:1"
       id="path3-2-5-5"
       cx="-9.1681347"
       cy="15.535409"
       r="3.1174924"
       transform="scale(-1,1)" /><circle
       style="fill:none;fill-opacity:1;stroke:#f06a23;stroke-width:1.665;stroke-dasharray:none;stroke-opacity:1"
       id="path3-2-7-1-3"
       cx="-8.0671272"
       cy="26.448679"
       r="3.9338133"
       transform="scale(-1,1)" /><circle
       style="fill:#e2065d;fill-opacity:1;stroke:#e2065d;stroke-width:1.665;stroke-dasharray:none;stroke-opacity:1"
       id="path3-2-7-2-8-2"
       cx="-9.0799971"
       cy="35.832687"
       r="2.5600054"
       transform="scale(-1,1)" /><circle
       style="fill:#eb6c26;fill-opacity:1;stroke:#eb6c26;stroke-width:1.66501;stroke-dasharray:none;stroke-opacity:1"
       id="path3-2-7-2-4-7-2"
       cx="-18.352825"
       cy="32.309162"
       r="3.8899486"
       transform="scale(-1,1)" /><circle
       style="fill:none;fill-opacity:1;stroke:#9c0c4b;stroke-width:1.66501;stroke-dasharray:none;stroke-opacity:1"
       id="path3-2-7-2-4-3-4-6"
       cx="-18.411203"
       cy="41.697041"
       r="3.4546945"
       transform="scale(-1,1)" /><path
       style="fill:none;fill-opacity:1;stroke:#44af4d;stroke-width:1.665;stroke-linecap:round;stroke-linejoin:round;stroke-dasharray:none;stroke-opacity:1"
       d="m 21.9111,14.978751 -0.06839,9.506709 c 0,0 -0.957512,1.265281 -3.2145,1.265281 -2.256988,0 -5.334699,-2.152544 -5.334699,-4.992732 0,-2.670261 2.183966,-5.779258 8.617593,-5.779258 z"
       id="path4-0-9"
       sodipodi:nodetypes="ccsssc" /></g></svg>
